<?xml version="1.0"?>
<svg xmlns="http://www.w3.org/2000/svg" xmlns:xlink="http://www.w3.org/1999/xlink" version="1.1" id="Capa_1" x="0px" y="0px" viewBox="0 0 512 512" style="enable-background:new 0 0 512 512;" xml:space="preserve" width="512px" height="512px" class=""><g><g transform="translate(0 -1)">
	<g>
		<path style="fill:#E5C8A2" d="M204.8,394.739v24.405h-82.603l-61.696-61.696c-7.044-6.978-12.743-15.193-16.811-24.235    L10.24,259.657c-1.132-2.432-1.715-5.083-1.707-7.765c0.025-10.311,8.377-18.663,18.688-18.688    c7.485-0.028,14.251,4.45,17.152,11.349l19.115,44.544c1.124,2.69,2.406,5.312,3.84,7.851l3.243-1.707v-0.085    c11.198-11.24,29.13-12.055,41.301-1.877c15.245,13.791,32.696,24.925,51.627,32.939c9.719,3.49,18.224,9.712,24.491,17.92    C199.143,358.624,205.068,376.458,204.8,394.739z" data-original="#CBB292" class="" data-old_color="#CBB292"/>
		<path style="fill:#E5C8A2" d="M503.467,251.891c0.008,2.682-0.575,5.334-1.707,7.765l-33.451,73.557    c-4.068,9.042-9.767,17.257-16.811,24.235l-61.696,61.696H307.2v-24.405c-0.267-18.281,5.657-36.115,16.811-50.603    c6.267-8.208,14.771-14.43,24.491-17.92c18.931-8.014,36.382-19.148,51.627-32.939c12.171-10.178,30.103-9.363,41.301,1.877v0.085    l3.243,1.707c1.434-2.539,2.716-5.16,3.84-7.851l19.115-44.544c2.901-6.9,9.667-11.377,17.152-11.349    C495.09,233.228,503.442,241.581,503.467,251.891z" data-original="#CBB292" class="" data-old_color="#CBB292"/>
	</g>
	<path style="fill:#D88A8A" d="M399.702,204.531C374.528,256.158,309.931,307.87,256,342.345   c-53.931-34.475-118.528-86.187-143.701-137.813c-35.925-68.949-35.925-137.899,0-172.373S220.075-2.317,256,66.633   C291.926-2.317,363.776-2.317,399.702,32.158S435.627,135.582,399.702,204.531z" data-original="#CC4B4C" class="" data-old_color="#CC4B4C"/>
	<g>
		<g>
			<path style="fill:#AE6A6A" d="M153.6,69.278c-4.713,0-8.533-3.821-8.533-8.533v-8.533c0-4.713,3.821-8.533,8.533-8.533     c4.713,0,8.533,3.821,8.533,8.533v8.533C162.133,65.457,158.313,69.278,153.6,69.278z" data-original="#802F34" class="" data-old_color="#802F34"/>
			<path style="fill:#AE6A6A" d="M153.6,111.945c-4.713,0-8.533-3.821-8.533-8.533v-8.533c0-4.713,3.821-8.533,8.533-8.533     c4.713,0,8.533,3.821,8.533,8.533v8.533C162.133,108.124,158.313,111.945,153.6,111.945z" data-original="#802F34" class="" data-old_color="#802F34"/>
			<path style="fill:#AE6A6A" d="M136.533,86.345H128c-4.713,0-8.533-3.82-8.533-8.533s3.821-8.533,8.533-8.533h8.533     c4.713,0,8.533,3.82,8.533,8.533S141.246,86.345,136.533,86.345z" data-original="#802F34" class="" data-old_color="#802F34"/>
			<path style="fill:#AE6A6A" d="M179.2,86.345h-8.533c-4.713,0-8.533-3.82-8.533-8.533s3.821-8.533,8.533-8.533h8.533     c4.713,0,8.533,3.82,8.533,8.533S183.913,86.345,179.2,86.345z" data-original="#802F34" class="" data-old_color="#802F34"/>
		</g>
		<g>
			<path style="fill:#B4997F" d="M166.221,318.128c-17.963-7.569-34.486-18.18-48.842-31.367     c-13.303-11.065-32.277-12.129-46.733-2.621l-18.404-42.892c-5.052-11.91-17.793-18.614-30.47-16.032     C9.095,227.799-0.009,238.953,0,251.89c-0.013,3.903,0.831,7.76,2.475,11.3l33.442,73.546     c4.489,9.978,10.777,19.045,18.55,26.746l61.696,61.696c1.6,1.6,3.77,2.5,6.033,2.5H204.8c4.713,0,8.533-3.82,8.533-8.533     v-24.405c0.245-20.231-6.347-39.953-18.708-55.971C187.358,329.282,177.489,322.11,166.221,318.128z M196.267,410.611h-70.537     l-59.233-59.233c-6.304-6.246-11.402-13.601-15.038-21.696l-33.483-73.633c-0.606-1.302-0.916-2.722-0.908-4.158     c0.013-5.602,4.552-10.141,10.154-10.154c4.07-0.015,7.747,2.427,9.313,6.183l19.083,44.471c1.228,2.929,2.625,5.784,4.183,8.55     l0.017,0.054l0.043,0.068l0.048,0.099l0.056,0.066c4.593,8.457,10.388,16.205,17.202,23.001l38.996,39     c3.334,3.322,8.728,3.318,12.056-0.01c3.328-3.328,3.333-8.722,0.01-12.056l-38.996-39.005     c-3.855-3.936-7.31-8.245-10.312-12.865c8.155-6.236,19.533-6.024,27.449,0.511c16.084,14.481,34.491,26.149,54.45,34.517     c8.149,2.96,15.268,8.216,20.496,15.133c9.935,12.985,15.201,28.94,14.95,45.288V410.611z" data-original="#7F6E5D" class="" data-old_color="#7F6E5D"/>
			<path style="fill:#B4997F" d="M484.779,224.67c-10.9-0.037-20.756,6.475-24.996,16.517l-18.429,42.954     c-14.452-9.511-33.424-8.45-46.725,2.613c-14.346,13.181-30.857,23.789-48.808,31.358c-11.304,3.993-21.202,11.188-28.488,20.708     c-12.337,16.009-18.914,35.711-18.667,55.921v24.404c0,4.713,3.82,8.533,8.533,8.533h82.604c2.263-0.001,4.433-0.9,6.033-2.5     l61.658-61.658c7.786-7.706,14.084-16.781,18.579-26.771l33.417-73.483c1.662-3.561,2.519-7.445,2.509-11.375     C511.982,236.864,499.805,224.688,484.779,224.67z M493.992,256.124l-33.458,73.571c-3.642,8.106-8.75,15.47-15.067,21.721     l-59.196,59.196h-70.537v-15.871c-0.254-16.326,4.998-32.262,14.908-45.238c5.246-6.949,12.395-12.229,20.579-15.2     c19.947-8.367,38.343-20.033,54.417-34.509c7.915-6.535,19.292-6.743,27.441-0.502c-3.003,4.621-6.457,8.932-10.312,12.869     l-38.996,39c-2.162,2.154-3.008,5.299-2.22,8.247c0.788,2.948,3.091,5.251,6.039,6.039c2.948,0.788,6.093-0.058,8.247-2.22     l38.996-38.996c6.813-6.799,12.607-14.547,17.202-23.005l0.057-0.066l0.048-0.099l0.043-0.068l0.016-0.054     c1.547-2.744,2.934-5.575,4.155-8.48l19.138-44.604c1.577-3.727,5.24-6.141,9.288-6.121c5.602,0.013,10.141,4.551,10.154,10.154     C494.938,253.354,494.616,254.8,493.992,256.124z" data-original="#7F6E5D" class="" data-old_color="#7F6E5D"/>
		</g>
		<g>
			<path style="fill:#C5CFC6" d="M221.867,435.358v61.44c-0.261,4.465-4.065,7.89-8.533,7.68h-93.867     c-4.468,0.21-8.273-3.215-8.533-7.68v-61.44c0.261-4.465,4.065-7.89,8.533-7.68h93.867     C217.801,427.468,221.606,430.893,221.867,435.358z" data-original="#4482C3" class="active-path" data-old_color="#4482C3"/>
			<path style="fill:#C5CFC6" d="M401.067,435.358v61.44c-0.261,4.465-4.065,7.89-8.533,7.68h-93.867     c-4.468,0.21-8.273-3.215-8.533-7.68v-61.44c0.261-4.465,4.065-7.89,8.533-7.68h93.867     C397.001,427.468,400.806,430.893,401.067,435.358z" data-original="#4482C3" class="active-path" data-old_color="#4482C3"/>
		</g>
		<g>
			<path style="fill:#9D9D93" d="M196.267,470.345h-8.533c-4.713,0-8.533-3.82-8.533-8.533s3.821-8.533,8.533-8.533h8.533     c4.713,0,8.533,3.821,8.533,8.533S200.98,470.345,196.267,470.345z" data-original="#3F5C6C" class="" data-old_color="#3F5C6C"/>
			<path style="fill:#9D9D93" d="M324.267,470.345h-8.533c-4.713,0-8.533-3.82-8.533-8.533s3.821-8.533,8.533-8.533h8.533     c4.713,0,8.533,3.821,8.533,8.533S328.98,470.345,324.267,470.345z" data-original="#3F5C6C" class="" data-old_color="#3F5C6C"/>
		</g>
	</g>
</g></g> </svg>
