<svg height="512pt" viewBox="0 0 512 512" width="512pt" xmlns="http://www.w3.org/2000/svg"><path d="m512 256c0 26.019531-3.875 51.125-11.097656 74.773438-5.253906 17.261718-12.296875 33.75-20.898438 49.246093-27.542968 49.640625-71.105468 89.160157-123.703125 111.585938-9.144531 3.894531-18.558593 7.28125-28.214843 10.101562-6.976563 2.046875-14.09375 3.804688-21.3125 5.257813-4.714844.949218-9.480469 1.765625-14.273438 2.453125-4.609375.660156-9.257812 1.191406-13.941406 1.601562-2.925782.25-5.871094.457031-8.816406.613281-4.558594.242188-9.132813.367188-13.742188.367188-6.007812 0-11.964844-.207031-17.867188-.617188-7.054687-.480468-14.023437-1.253906-20.898437-2.296874-24.230469-3.691407-47.355469-10.761719-68.859375-20.742188-9.75-4.523438-19.171875-9.644531-28.210938-15.320312-7.367187-4.617188-14.484374-9.601563-21.316406-14.917969-10.03125-7.808594-19.457031-16.34375-28.210937-25.539063-15.851563-16.632812-29.488281-35.402344-40.429688-55.828125-8.777343-16.382812-15.828125-33.824219-20.898437-52.097656-6.070313-21.839844-9.308594-44.859375-9.308594-68.640625 0-23.769531 3.238281-46.789062 9.308594-68.640625 5.070312-18.273437 12.121094-35.714844 20.898437-52.097656 21.003907-39.214844 51.933594-72.316407 89.421875-95.953125 12.894532-8.128906 26.5625-15.140625 40.867188-20.898438 29.507812-11.878906 61.742187-18.410156 95.503906-18.410156 63.132812 0 120.914062 22.851562 165.554688 60.730469 7.699218 6.53125 15.003906 13.507812 21.878906 20.898437 14.128906 15.179688 26.4375 32.078125 36.570312 50.351563 8.601563 15.496093 15.644532 31.984375 20.898438 49.246093 7.222656 23.648438 11.097656 48.753907 11.097656 74.773438zm0 0" fill="#349cdd"/><path d="m464.832031 60.730469h-211.539062c-19.914063 0-36.058594 16.152343-36.058594 36.070312v153.609375c2.78125 0 5.570313.71875 8.046875 2.195313 5.628906 3.351562 8.585938 10.09375 7.3125 16.496093-1.441406 7.230469-7.984375 12.613282-15.359375 12.613282v227.371094c6.875 1.042968 13.84375 1.816406 20.898437 2.296874 5.902344.410157 11.859376.617188 17.867188.617188 7.597656 0 15.121094-.335938 22.558594-.980469 9.5625-.835937 18.976562-2.195312 28.214844-4.054687 7.21875-1.453125 14.335937-3.210938 21.3125-5.257813 9.65625-2.820312 19.070312-6.207031 28.214843-10.101562 52.597657-22.425781 96.160157-61.945313 123.703125-111.585938 8.601563-15.496093 15.644532-31.984375 20.898438-49.246093v-49.058594c-6.53125 0-12.558594-4.242188-14.742188-10.398438-2.195312-6.140625-.273437-13.257812 4.804688-17.394531 2.855468-2.320313 6.386718-3.511719 9.9375-3.523437v-153.597657c0-19.917969-16.144532-36.070312-36.070313-36.070312zm-195.992187 216.386719c-2.839844 2.84375-6.757813 4.597656-11.085938 4.597656-4.335937 0-8.242187-1.753906-11.085937-4.597656-2.832031-2.832032-4.585938-6.75-4.585938-11.074219 0-8.664063 7.011719-15.675781 15.671875-15.675781 4.328125 0 8.246094 1.757812 11.085938 4.589843 2.832031 2.828125 4.589844 6.757813 4.589844 11.085938 0 4.324219-1.757813 8.242187-4.589844 11.074219zm40.523437 0c-2.84375 2.84375-6.75 4.597656-11.085937 4.597656-4.328125 0-8.246094-1.753906-11.085938-4.597656-2.832031-2.832032-4.589844-6.75-4.589844-11.074219 0-8.664063 7.023438-15.675781 15.675782-15.675781 4.335937 0 8.242187 1.757812 11.085937 4.589843 2.832031 2.828125 4.585938 6.757813 4.585938 11.085938 0 4.324219-1.753907 8.242187-4.585938 11.074219zm18.359375 0c-2.832031-2.832032-4.589844-6.75-4.589844-11.074219 0-8.664063 7.011719-15.675781 15.675782-15.675781 4.324218 0 8.242187 1.757812 11.074218 4.589843 2.84375 2.828125 4.597657 6.757813 4.597657 11.085938 0 4.324219-1.753907 8.242187-4.597657 11.074219-2.832031 2.84375-6.75 4.597656-11.074218 4.597656-4.328125 0-8.253906-1.753906-11.085938-4.597656zm62.691406 0c-2.828124 2.84375-6.757812 4.597656-11.085937 4.597656-4.324219 0-8.242187-1.753906-11.074219-4.597656-2.84375-2.832032-4.597656-6.75-4.597656-11.074219 0-8.664063 7.019531-15.675781 15.671875-15.675781 4.328125 0 8.257813 1.757812 11.085937 4.589843 2.832032 2.828125 4.589844 6.757813 4.589844 11.085938 0 4.324219-1.757812 8.242187-4.589844 11.074219zm40.523438 0c-2.832031 2.84375-6.761719 4.597656-11.085938 4.597656-4.328124 0-8.246093-1.753906-11.078124-4.597656-2.839844-2.832032-4.597657-6.75-4.597657-11.074219 0-8.664063 7.023438-15.675781 15.675781-15.675781 4.324219 0 8.253907 1.757812 11.085938 4.589843 2.832031 2.828125 4.585938 6.757813 4.585938 11.085938 0 4.324219-1.753907 8.242187-4.585938 11.074219zm40.53125 0c-2.84375 2.84375-6.761719 4.597656-11.085938 4.597656-4.335937 0-8.246093-1.753906-11.085937-4.597656-2.832031-2.832032-4.589844-6.75-4.589844-11.074219 0-8.664063 7.011719-15.675781 15.675781-15.675781 4.324219 0 8.242188 1.757812 11.085938 4.589843 2.832031 2.828125 4.585938 6.757813 4.585938 11.085938 0 4.324219-1.753907 8.242187-4.585938 11.074219zm0 0" fill="#ffb525"/><path d="m464.832031 81.628906h-211.539062c-8.359375 0-15.160157 6.8125-15.160157 15.171875v414.582031c5.902344.410157 11.859376.617188 17.867188.617188 7.597656 0 15.121094-.335938 22.558594-.980469 9.5625-.835937 18.976562-2.195312 28.214844-4.054687 7.21875-1.453125 14.335937-3.210938 21.3125-5.257813 9.65625-2.820312 19.070312-6.207031 28.214843-10.101562 52.597657-22.425781 96.160157-61.945313 123.703125-111.585938v-283.21875c0-8.359375-6.800781-15.171875-15.171875-15.171875zm-195.992187 195.488282c-2.839844 2.84375-6.757813 4.597656-11.085938 4.597656-4.335937 0-8.242187-1.753906-11.085937-4.597656-2.832031-2.832032-4.585938-6.75-4.585938-11.074219 0-8.664063 7.011719-15.675781 15.671875-15.675781 4.328125 0 8.246094 1.757812 11.085938 4.589843 2.832031 2.828125 4.589844 6.757813 4.589844 11.085938 0 4.324219-1.757813 8.242187-4.589844 11.074219zm40.523437 0c-2.84375 2.84375-6.75 4.597656-11.085937 4.597656-4.328125 0-8.246094-1.753906-11.085938-4.597656-2.832031-2.832032-4.589844-6.75-4.589844-11.074219 0-8.664063 7.023438-15.675781 15.675782-15.675781 4.335937 0 8.242187 1.757812 11.085937 4.589843 2.832031 2.828125 4.585938 6.757813 4.585938 11.085938 0 4.324219-1.753907 8.242187-4.585938 11.074219zm18.359375 0c-2.832031-2.832032-4.589844-6.75-4.589844-11.074219 0-8.664063 7.011719-15.675781 15.675782-15.675781 4.324218 0 8.242187 1.757812 11.074218 4.589843 2.84375 2.828125 4.597657 6.757813 4.597657 11.085938 0 4.324219-1.753907 8.242187-4.597657 11.074219-2.832031 2.84375-6.75 4.597656-11.074218 4.597656-4.328125 0-8.253906-1.753906-11.085938-4.597656zm62.691406 0c-2.828124 2.84375-6.757812 4.597656-11.085937 4.597656-4.324219 0-8.242187-1.753906-11.074219-4.597656-2.84375-2.832032-4.597656-6.75-4.597656-11.074219 0-8.664063 7.019531-15.675781 15.671875-15.675781 4.328125 0 8.257813 1.757812 11.085937 4.589843 2.832032 2.828125 4.589844 6.757813 4.589844 11.085938 0 4.324219-1.757812 8.242187-4.589844 11.074219zm40.523438 0c-2.832031 2.84375-6.761719 4.597656-11.085938 4.597656-4.328124 0-8.246093-1.753906-11.078124-4.597656-2.839844-2.832032-4.597657-6.75-4.597657-11.074219 0-8.664063 7.023438-15.675781 15.675781-15.675781 4.324219 0 8.253907 1.757812 11.085938 4.589843 2.832031 2.828125 4.585938 6.757813 4.585938 11.085938 0 4.324219-1.753907 8.242187-4.585938 11.074219zm40.53125 0c-2.84375 2.84375-6.761719 4.597656-11.085938 4.597656-4.335937 0-8.246093-1.753906-11.085937-4.597656-2.832031-2.832032-4.589844-6.75-4.589844-11.074219 0-8.664063 7.011719-15.675781 15.675781-15.675781 4.324219 0 8.242188 1.757812 11.085938 4.589843 2.832031 2.828125 4.585938 6.757813 4.585938 11.085938 0 4.324219-1.753907 8.242187-4.585938 11.074219zm0 0" fill="#ffe662"/><g fill="#2a4787"><path d="m294.863281 139.394531c0-2.230469 2.371094-3.347656 4.738281-3.347656h24.195313c2.300781 0 3.277344 2.441406 3.277344 4.671875 0 2.578125-1.1875 4.808594-3.277344 4.808594h-18.058594v11.785156h10.527344c2.089844 0 3.277344 2.023438 3.277344 4.253906 0 1.882813-.976563 4.113282-3.277344 4.113282h-10.527344v17.988281c0 2.230469-2.71875 3.347656-5.4375 3.347656s-5.4375-1.117187-5.4375-3.347656zm0 0"/><path d="m334.953125 139.324219c0-1.742188 1.324219-3.277344 3.34375-3.277344h14.433594c9.554687 0 17.152343 3.558594 17.152343 14.921875 0 7.808594-3.554687 12.269531-8.4375 14.152344l8.507813 15.410156c.28125.417969.347656.90625.347656 1.253906 0 2.71875-3.625 5.648438-6.832031 5.648438-1.394531 0-2.71875-.558594-3.484375-2.023438l-9.554687-18.542968h-4.601563v16.800781c0 2.230469-2.71875 3.347656-5.4375 3.347656s-5.4375-1.117187-5.4375-3.347656zm10.875 6.207031v12.96875h6.902344c3.90625 0 6.277343-1.605469 6.277343-6.484375 0-4.882813-2.371093-6.488281-6.277343-6.488281h-6.902344zm0 0"/><path d="m390.730469 157.3125h10.457031c2.09375 0 3.277344 2.023438 3.277344 4.253906 0 1.882813-.976563 4.113282-3.277344 4.113282h-10.457031v11.855468h18.683593c2.09375 0 3.277344 2.230469 3.277344 4.808594 0 2.230469-.976562 4.671875-3.277344 4.671875h-24.820312c-2.371094 0-4.742188-1.117187-4.742188-3.347656v-44.273438c0-2.230469 2.371094-3.34375 4.742188-3.34375h24.820312c2.300782 0 3.277344 2.4375 3.277344 4.667969 0 2.582031-1.183594 4.8125-3.277344 4.8125h-18.683593zm0 0"/><path d="m432.492188 157.3125h10.457031c2.09375 0 3.277343 2.023438 3.277343 4.253906 0 1.882813-.976562 4.113282-3.277343 4.113282h-10.457031v11.855468h18.683593c2.09375 0 3.277344 2.230469 3.277344 4.808594 0 2.230469-.976563 4.671875-3.277344 4.671875h-24.820312c-2.371094 0-4.738281-1.117187-4.738281-3.347656v-44.273438c0-2.230469 2.367187-3.34375 4.738281-3.34375h24.820312c2.300781 0 3.277344 2.4375 3.277344 4.667969 0 2.582031-1.183594 4.8125-3.277344 4.8125h-18.683593zm0 0"/><path d="m306.773438 322.464844v184.5c-9.238282 1.859375-18.652344 3.21875-28.214844 4.054687v-188.554687zm0 0"/><path d="m356.300781 427.476562v64.128907c-9.144531 3.894531-18.558593 7.28125-28.214843 10.101562v-74.230469zm0 0"/></g><path d="m283.042969 211.601562c2.851562-2.320312 6.382812-3.511718 9.9375-3.519531v-153.601562c0-19.914063-16.144531-36.070313-36.070313-36.070313h-211.539062c-19.917969 0-36.0625 16.15625-36.0625 36.070313v153.609375c2.78125 0 5.570312.722656 8.046875 2.195312 5.632812 3.355469 8.589843 10.09375 7.316406 16.5-1.445313 7.230469-7.984375 12.613282-15.363281 12.613282v85.242187c5.070312 18.273437 12.121094 35.714844 20.898437 52.097656 37.3125 69.652344 105.921875 120.027344 187.027344 132.347657 6.875 1.042968 13.84375 1.816406 20.898437 2.296874 5.902344.410157 11.859376.617188 17.867188.617188 4.609375 0 9.183594-.125 13.742188-.367188 2.945312-.15625 5.890624-.363281 8.816406-.613281 4.683594-.410156 9.332031-.941406 13.941406-1.601562.320312-1.910157.480469-3.863281.480469-5.859375v-264.160156c-6.53125 0-12.5625-4.246094-14.746094-10.398438-2.191406-6.144531-.269531-13.261719 4.808594-17.398438zm-222.125 23.199219c-2.84375 2.839844-6.761719 4.597657-11.085938 4.597657-4.335937 0-8.246093-1.757813-11.085937-4.597657-2.832032-2.832031-4.589844-6.75-4.589844-11.078125 0-8.660156 7.011719-15.671875 15.675781-15.671875 4.324219 0 8.242188 1.753907 11.085938 4.585938 2.832031 2.832031 4.585937 6.761719 4.585937 11.085937 0 4.328125-1.753906 8.246094-4.585937 11.078125zm40.519531 0c-2.839844 2.839844-6.75 4.597657-11.085938 4.597657-4.324218 0-8.242187-1.757813-11.085937-4.597657-2.832031-2.832031-4.585937-6.75-4.585937-11.078125 0-8.660156 7.019531-15.671875 15.671874-15.671875 4.335938 0 8.246094 1.753907 11.085938 4.585938 2.832031 2.832031 4.589844 6.761719 4.589844 11.085937 0 4.328125-1.757813 8.246094-4.589844 11.078125zm40.523438 0c-2.832032 2.839844-6.75 4.597657-11.078126 4.597657-4.324218 0-8.253906-1.757813-11.085937-4.597657-2.832031-2.832031-4.585937-6.75-4.585937-11.078125 0-8.660156 7.011718-15.671875 15.671874-15.671875 4.328126 0 8.246094 1.753907 11.078126 4.585938 2.839843 2.832031 4.597656 6.761719 4.597656 11.085937 0 4.328125-1.757813 8.246094-4.597656 11.078125zm40.53125 0c-2.832032 2.839844-6.761719 4.597657-11.085938 4.597657-4.328125 0-8.246094-1.757813-11.078125-4.597657-2.839844-2.832031-4.597656-6.75-4.597656-11.078125 0-8.660156 7.023437-15.671875 15.675781-15.671875 4.324219 0 8.253906 1.753907 11.085938 4.585938 2.832031 2.832031 4.585937 6.761719 4.585937 11.085937 0 4.328125-1.753906 8.246094-4.585937 11.078125zm40.519531 0c-2.832031 2.839844-6.757813 4.597657-11.085938 4.597657-4.324219 0-8.242187-1.757813-11.074219-4.597657-2.84375-2.832031-4.597656-6.75-4.597656-11.078125 0-8.660156 7.019532-15.671875 15.671875-15.671875 4.328125 0 8.253907 1.753907 11.085938 4.585938s4.589843 6.761719 4.589843 11.085937c0 4.328125-1.757812 8.246094-4.589843 11.078125zm40.53125 0c-2.839844 2.839844-6.757813 4.597657-11.085938 4.597657-4.335937 0-8.242187-1.757813-11.085937-4.597657-2.832032-2.832031-4.585938-6.75-4.585938-11.078125 0-8.660156 7.011719-15.671875 15.671875-15.671875 4.328125 0 8.246094 1.753907 11.085938 4.585938 2.832031 2.832031 4.589843 6.761719 4.589843 11.085937 0 4.328125-1.757812 8.246094-4.589843 11.078125zm0 0" fill="#e03a68"/><path d="m256.910156 39.308594h-211.539062c-8.359375 0-15.164063 6.8125-15.164063 15.171875v322.257812c37.3125 69.652344 105.921875 120.027344 187.027344 132.347657 6.875 1.042968 13.84375 1.816406 20.898437 2.296874 5.902344.410157 11.859376.617188 17.867188.617188 4.609375 0 9.183594-.125 13.742188-.367188 1.480468-2.339843 2.339843-5.109374 2.339843-8.074218v-449.078125c0-8.359375-6.804687-15.171875-15.171875-15.171875zm-195.992187 195.492187c-2.84375 2.839844-6.761719 4.597657-11.085938 4.597657-4.335937 0-8.246093-1.757813-11.085937-4.597657-2.832032-2.832031-4.589844-6.75-4.589844-11.078125 0-8.660156 7.011719-15.671875 15.675781-15.671875 4.324219 0 8.242188 1.753907 11.085938 4.585938 2.832031 2.832031 4.585937 6.761719 4.585937 11.085937 0 4.328125-1.753906 8.246094-4.585937 11.078125zm40.519531 0c-2.839844 2.839844-6.75 4.597657-11.085938 4.597657-4.324218 0-8.242187-1.757813-11.085937-4.597657-2.832031-2.832031-4.585937-6.75-4.585937-11.078125 0-8.660156 7.019531-15.671875 15.671874-15.671875 4.335938 0 8.246094 1.753907 11.085938 4.585938 2.832031 2.832031 4.589844 6.761719 4.589844 11.085937 0 4.328125-1.757813 8.246094-4.589844 11.078125zm40.523438 0c-2.832032 2.839844-6.75 4.597657-11.078126 4.597657-4.324218 0-8.253906-1.757813-11.085937-4.597657-2.832031-2.832031-4.585937-6.75-4.585937-11.078125 0-8.660156 7.011718-15.671875 15.671874-15.671875 4.328126 0 8.246094 1.753907 11.078126 4.585938 2.839843 2.832031 4.597656 6.761719 4.597656 11.085937 0 4.328125-1.757813 8.246094-4.597656 11.078125zm40.53125 0c-2.832032 2.839844-6.761719 4.597657-11.085938 4.597657-4.328125 0-8.246094-1.757813-11.078125-4.597657-2.839844-2.832031-4.597656-6.75-4.597656-11.078125 0-8.660156 7.023437-15.671875 15.675781-15.671875 4.324219 0 8.253906 1.753907 11.085938 4.585938 2.832031 2.832031 4.585937 6.761719 4.585937 11.085937 0 4.328125-1.753906 8.246094-4.585937 11.078125zm40.519531 0c-2.832031 2.839844-6.757813 4.597657-11.085938 4.597657-4.324219 0-8.242187-1.757813-11.074219-4.597657-2.84375-2.832031-4.597656-6.75-4.597656-11.078125 0-8.660156 7.019532-15.671875 15.671875-15.671875 4.328125 0 8.253907 1.753907 11.085938 4.585938s4.589843 6.761719 4.589843 11.085937c0 4.328125-1.757812 8.246094-4.589843 11.078125zm40.53125 0c-2.839844 2.839844-6.757813 4.597657-11.085938 4.597657-4.335937 0-8.242187-1.757813-11.085937-4.597657-2.832032-2.832031-4.585938-6.75-4.585938-11.078125 0-8.660156 7.011719-15.671875 15.671875-15.671875 4.328125 0 8.246094 1.753907 11.085938 4.585938 2.832031 2.832031 4.589843 6.761719 4.589843 11.085937 0 4.328125-1.757812 8.246094-4.589843 11.078125zm0 0" fill="#f26065"/><path d="m104.351562 93.664062c.804688 0 1.742188.132813 2.546876.535157l96.550781 47.136719c2.007812.9375 3.347656 3.480468 3.347656 6.023437 0 4.554687-3.75 7.5-7.097656 7.5-.804688 0-1.742188-.265625-2.542969-.667969l-96.550781-47.003906c-2.277344-1.070312-3.347657-3.214844-3.347657-5.625 0-3.75 2.808594-7.898438 7.09375-7.898438zm35.488282 81.683594h-19.015625c-13.257813 0-18.078125-8.703125-18.078125-20.085937 0-11.246094 4.820312-20.085938 18.078125-20.085938h19.015625c13.257812 0 18.078125 8.835938 18.078125 20.085938 0 11.382812-4.820313 20.085937-18.078125 20.085937zm-19.015625-26.78125c-4.417969 0-6.429688 2.542969-6.429688 6.695313 0 4.152343 2.011719 6.5625 6.429688 6.5625h19.015625c4.417968 0 6.429687-2.410157 6.429687-6.5625 0-4.152344-2.011719-6.695313-6.429687-6.695313zm62.136719-34.683594h-19.015626c-13.257812 0-18.078124-8.703124-18.078124-20.085937 0-11.25 4.820312-20.085937 18.078124-20.085937h19.015626c13.257812 0 18.078124 8.835937 18.078124 20.085937 0 11.382813-4.820312 20.085937-18.078124 20.085937zm-19.015626-26.78125c-4.417968 0-6.429687 2.542969-6.429687 6.695313s2.007813 6.5625 6.429687 6.5625h19.015626c4.417968 0 6.425781-2.410156 6.425781-6.5625s-2.007813-6.695313-6.425781-6.695313zm0 0" fill="#fff"/><path d="m98.847656 280.148438v177.957031c-10.03125-7.808594-19.457031-16.34375-28.210937-25.539063v-152.417968zm0 0" fill="#fff"/><path d="m148.375 385.160156v103.183594c-9.75-4.523438-19.171875-9.644531-28.210938-15.320312v-87.863282zm0 0" fill="#fff"/></svg>