<?xml version="1.0" encoding="iso-8859-1"?>
<!-- Generator: Adobe Illustrator 19.0.0, SVG Export Plug-In . SVG Version: 6.00 Build 0)  -->
<svg version="1.1" id="Capa_1" xmlns="http://www.w3.org/2000/svg" xmlns:xlink="http://www.w3.org/1999/xlink" x="0px" y="0px"
	 viewBox="0 0 512 512" style="enable-background:new 0 0 512 512;" xml:space="preserve">
<path style="fill:#FFE261;" d="M512,256c0,71.649-29.435,136.411-76.863,182.888C388.963,484.112,325.747,512,256,512
	c-77.991,0-147.843-34.879-194.8-89.893C23.04,377.407,0,319.384,0,256c0-56.341,18.202-108.439,49.048-150.716
	c6.144-8.432,12.8-16.468,19.916-24.074C115.681,31.232,182.188,0,256,0c31.232,0,61.158,5.59,88.827,15.841
	c27.857,10.292,53.426,25.307,75.755,44.074C476.473,106.872,512,177.288,512,256z"/>
<path style="fill:#F2F2F7;" d="M435.137,438.888C388.963,484.112,325.747,512,256,512c-77.991,0-147.843-34.879-194.8-89.893
	c5.622-66.476,6.092-133.298,1.421-199.837c-2.748-39.131-7.272-78.169-13.573-116.987c-1.902-11.755-3.971-23.489-6.207-35.192
	l26.122,11.118l8.411,3.574l26.708-26.373l34.534,14.691l26.697-26.373l34.534,14.691l26.697-26.363l34.534,14.681l26.708-26.373
	h0.01l34.534,14.691l22.497-22.215l4.211-4.159l34.544,14.691L410.29,0c3.803,19.926,7.231,39.894,10.292,59.914
	c6.008,39.163,10.606,78.482,13.814,117.896C441.448,264.683,441.699,351.984,435.137,438.888z"/>
<path style="fill:#FF526C;" d="M434.395,177.81l-371.775,44.46c-2.748-39.131-7.272-78.169-13.573-116.987
	c-1.902-11.755-3.971-23.489-6.207-35.192l26.122,11.118l8.411,3.574l26.708-26.373l34.534,14.691l26.697-26.373l34.534,14.691
	l26.697-26.363l34.534,14.681l26.708-26.373h0.01l34.534,14.691l22.497-22.215l4.211-4.159l34.544,14.691L410.29,0
	c3.803,19.926,7.231,39.894,10.292,59.914C426.59,99.077,431.188,138.397,434.395,177.81z"/>
<path style="fill:#374266;" d="M156.483,345.046v-38.511c0-26.849,17.63-36.613,40.681-36.613c22.782,0,40.682,9.765,40.682,36.613
	v38.511c0,26.85-17.901,36.613-40.682,36.613C174.113,381.658,156.483,371.895,156.483,345.046z M210.726,306.534
	c0-8.95-5.153-13.017-13.562-13.017c-8.407,0-13.288,4.068-13.288,13.017v38.511c0,8.951,4.881,13.018,13.288,13.018
	c8.408,0,13.562-4.068,13.562-13.018V306.534z M321.919,273.177c0,1.627-0.271,3.525-1.084,5.152l-95.465,195.539
	c-1.899,4.068-7.052,6.78-12.203,6.78c-9.221,0-15.188-7.594-15.188-14.374c0-1.628,0.542-3.525,1.356-5.152l95.192-195.539
	c2.169-4.611,6.509-6.78,11.39-6.78C313.512,258.802,321.919,264.498,321.919,273.177z M280.968,432.375v-38.511
	c0-26.85,17.628-36.613,40.681-36.613c22.782,0,40.681,9.764,40.681,36.613v38.511c0,26.85-17.899,36.613-40.681,36.613
	C298.595,468.987,280.968,459.223,280.968,432.375z M335.208,393.863c0-8.95-5.153-13.018-13.561-13.018
	c-8.407,0-13.289,4.069-13.289,13.018v38.511c0,8.95,4.883,13.017,13.289,13.017s13.561-4.068,13.561-13.017V393.863z"/>
<g>
</g>
<g>
</g>
<g>
</g>
<g>
</g>
<g>
</g>
<g>
</g>
<g>
</g>
<g>
</g>
<g>
</g>
<g>
</g>
<g>
</g>
<g>
</g>
<g>
</g>
<g>
</g>
<g>
</g>
</svg>
