<?xml version="1.0" encoding="utf-8"?>
<!-- Generator: Adobe Illustrator 22.1.0, SVG Export Plug-In . SVG Version: 6.00 Build 0)  -->
<svg xmlns="http://www.w3.org/2000/svg" xmlns:xlink="http://www.w3.org/1999/xlink" version="1.1" id="Layer_1" x="0px" y="0px" viewBox="0 0 512 512" style="enable-background:new 0 0 512 512;" xml:space="preserve" width="512" height="512">
<style type="text/css">
	.st0{fill:#FF624B;}
	.st1{fill:#FFC34C;}
	.st2{fill:#F9BB32;}
	.st3{fill:#DB9C2E;}
	.st4{fill:#FF4B34;}
	.st5{fill:#FF9079;}
	.st6{fill:#FCE575;}
	.st7{fill:#FFD551;}
	.st8{fill:#FFF4C1;}
	.st9{fill:#FFB74B;}
	.st10{fill:#EACF32;}
	.st11{fill:#99AF17;}
	.st12{fill:#CCC033;}
	.st13{fill:#FCDA4F;}
	.st14{fill:#FFA730;}
	.st15{fill:#FFEACF;}
	.st16{fill:#FFD59A;}
	.st17{fill:#FFDF74;}
	.st18{fill:#E58D23;}
	.st19{fill:#BF6C0D;}
	.st20{fill:#A56021;}
	.st21{fill:#8C4C17;}
	.st22{fill:#FFEA63;}
	.st23{fill:#FCF9DE;}
</style>
<g>
	<g>
		<path class="st15" d="M390.395,482.256H98.412c-13.807,0-25-11.193-25-25V54.744c0-13.807,11.193-25,25-25h291.983    c13.807,0,25,11.193,25,25v402.512C415.395,471.063,404.202,482.256,390.395,482.256z"/>
	</g>
	<g>
		<path class="st16" d="M133.413,457.256V54.744c0-13.807,11.192-25,25-25h-60c-13.808,0-25,11.193-25,25v402.512    c0,13.807,11.192,25,25,25h60C144.605,482.256,133.413,471.063,133.413,457.256z"/>
	</g>
	<g>
		<path class="st13" d="M374.774,158.487H253.455c-4.418,0-8-3.582-8-8V136.64c0-4.418,3.582-8,8-8h121.319c4.418,0,8,3.582,8,8    v13.847C382.774,154.905,379.193,158.487,374.774,158.487z"/>
	</g>
	<g>
		<g>
			<path class="st20" d="M382.774,99.563h-276.74c-4.971,0-9-4.03-9-9s4.029-9,9-9h276.74c4.971,0,9,4.03,9,9     S387.745,99.563,382.774,99.563z"/>
		</g>
	</g>
	<g>
		<g>
			<path class="st20" d="M226.534,152.563h-120.5c-4.971,0-9-4.03-9-9s4.029-9,9-9h120.5c4.971,0,9,4.03,9,9     S231.504,152.563,226.534,152.563z"/>
		</g>
	</g>
	<g>
		<path class="st13" d="M374.774,434.41H114.033c-4.418,0-8-3.582-8-8v-65.306c0-4.418,3.582-8,8-8h260.741c4.418,0,8,3.582,8,8    v65.306C382.774,430.828,379.193,434.41,374.774,434.41z"/>
	</g>
	<g>
		<path class="st13" d="M374.774,218.487H253.455c-4.418,0-8-3.582-8-8V196.64c0-4.418,3.582-8,8-8h121.319c4.418,0,8,3.582,8,8    v13.847C382.774,214.905,379.193,218.487,374.774,218.487z"/>
	</g>
	<g>
		<g>
			<path class="st20" d="M226.534,212.563h-120.5c-4.971,0-9-4.03-9-9s4.029-9,9-9h120.5c4.971,0,9,4.03,9,9     S231.504,212.563,226.534,212.563z"/>
		</g>
	</g>
	<g>
		<path class="st13" d="M374.774,278.487H253.455c-4.418,0-8-3.582-8-8V256.64c0-4.418,3.582-8,8-8h121.319c4.418,0,8,3.582,8,8    v13.847C382.774,274.905,379.193,278.487,374.774,278.487z"/>
	</g>
	<g>
		<g>
			<path class="st20" d="M226.534,272.563h-120.5c-4.971,0-9-4.03-9-9s4.029-9,9-9h120.5c4.971,0,9,4.03,9,9     S231.504,272.563,226.534,272.563z"/>
		</g>
	</g>
	<g>
		<g>
			<path class="st20" d="M382.774,322.563h-276.74c-4.971,0-9-4.03-9-9s4.029-9,9-9h276.74c4.971,0,9,4.03,9,9     S387.745,322.563,382.774,322.563z"/>
		</g>
	</g>
	<g>
		<path class="st1" d="M354.668,226.365l-4.834-1.393c-6.226-1.794-9.439-9.665-7.178-17.582l22.32-78.126    c2.262-7.917,9.142-12.88,15.368-11.087l4.834,1.392c6.226,1.794,9.44,9.665,7.178,17.582l-22.32,78.126    C367.774,223.195,360.894,228.159,354.668,226.365z"/>
	</g>
	<g>
		<path class="st22" d="M334.971,329.007l-18.94,67.851l0.201,1.099l5.562,20.545c0.667,2.465,3.164,3.2,5.002,1.473l16.158-15.188    l18.94-67.851L334.971,329.007z"/>
	</g>
	<g>
		<path class="st7" d="M327.487,401.13l-0.202-1.099l18.903-67.721l-11.217-3.304l-18.94,67.851l0.202,1.099l5.562,20.545    c0.667,2.465,3.164,3.2,5.002,1.473l4.616-4.339L327.487,401.13z"/>
	</g>
	<g>
		<path class="st20" d="M318.686,408.65l2.56,9.244c0.727,2.623,3.445,3.406,5.446,1.568l7.049-6.477L318.686,408.65z"/>
	</g>
	<g>
		<path class="st14" d="M349.991,385.263l-31.188-8.979c-2.87-0.826-4.458-4.086-3.546-7.281l80.765-282.841    c3.478-12.18,15.169-19.5,26.112-16.35l1.953,0.562c10.943,3.151,16.995,15.579,13.517,27.759L356.84,380.975    C355.928,384.17,352.861,386.09,349.991,385.263z"/>
	</g>
	<g>
		<path class="st18" d="M337.652,381.48c-2.87-0.826-4.458-4.086-3.546-7.281l80.765-282.841    c2.495-8.738,9.222-14.949,16.863-16.613c-2.142-1.996-4.711-3.525-7.646-4.371l-1.953-0.562    c-10.943-3.151-22.634,4.169-26.112,16.35l-80.765,282.841c-0.912,3.195,0.675,6.455,3.546,7.281l31.188,8.979    c0.479,0.138,0.964,0.193,1.443,0.185L337.652,381.48z"/>
	</g>
	<g>
		<path class="st22" d="M427.903,132.583l-40.288-11.106c-2.928-0.807-4.648-3.835-3.841-6.764l0.978-3.548    c0.807-2.928,3.835-4.648,6.764-3.841l40.288,11.106c2.928,0.807,4.648,3.835,3.841,6.764l-0.978,3.548    C433.859,131.671,430.831,133.39,427.903,132.583z"/>
	</g>
	<g>
		<path class="st7" d="M403.694,119.706l0.722-2.621c0.878-3.184,3.91-5.126,6.773-4.337l-19.792-5.456    c-2.863-0.789-5.895,1.153-6.773,4.337l-0.722,2.621c-0.878,3.184,0.731,6.406,3.594,7.195l19.792,5.456    C404.425,126.111,402.816,122.89,403.694,119.706z"/>
	</g>
	<g>
		<path class="st1" d="M404.664,182.979c-0.528,0-1.064-0.07-1.599-0.218c-3.194-0.881-5.07-4.185-4.189-7.379l3.323-12.056    c0.881-3.192,4.178-5.073,7.379-4.189c3.194,0.881,5.07,4.185,4.189,7.379l-3.323,12.056    C409.711,181.232,407.296,182.979,404.664,182.979z"/>
	</g>
	<g>
		<path class="st1" d="M380.803,269.542c-0.528,0-1.064-0.07-1.599-0.218c-3.194-0.881-5.07-4.184-4.189-7.379l19.237-69.79    c0.881-3.194,4.185-5.072,7.379-4.189c3.194,0.881,5.07,4.184,4.189,7.379l-19.237,69.79    C385.85,267.795,383.435,269.542,380.803,269.542z"/>
	</g>
	<g>
		<path class="st23" d="M396.365,454.789c-3.313,0-6-2.687-6-6V289.706c0-3.313,2.687-6,6-6s6,2.687,6,6v159.083    C402.365,452.103,399.679,454.789,396.365,454.789z"/>
	</g>
	<g>
		<path class="st21" d="M106.034,81.563c-4.971,0-9,4.03-9,9s4.029,9,9,9h27.379v-18H106.034z"/>
	</g>
	<g>
		<path class="st21" d="M106.034,304.563c-4.971,0-9,4.03-9,9s4.029,9,9,9h27.379v-18H106.034z"/>
	</g>
	<g>
		<path class="st21" d="M106.034,254.563c-4.971,0-9,4.03-9,9s4.029,9,9,9h27.379v-18H106.034z"/>
	</g>
	<g>
		<path class="st21" d="M106.034,194.563c-4.971,0-9,4.03-9,9s4.029,9,9,9h27.379v-18H106.034z"/>
	</g>
	<g>
		<path class="st21" d="M106.034,134.563c-4.971,0-9,4.03-9,9s4.029,9,9,9h27.379v-18H106.034z"/>
	</g>
	<g>
		<path class="st1" d="M114.033,353.104c-4.418,0-8,3.582-8,8v65.306c0,4.418,3.582,8,8,8h19.379v-81.306H114.033z"/>
	</g>
	<g>
		<circle class="st16" cx="166.284" cy="56.19" r="15.16"/>
	</g>
</g>
</svg>
