<svg width="512" height="512" xmlns="http://www.w3.org/2000/svg">

 <g>
  <title>background</title>
  <rect fill="none" id="canvas_background" height="402" width="582" y="-1" x="-1"/>
 </g>
 <g>
  <title>Layer 1</title>
  <g id="svg_1" transform="matrix(0.689449,0,0,0.689449,79.501,79.501) ">
   <path id="svg_2" fill="#C5CFC6" d="m465.557,0l-119.89,0l-89.667,10.001l-10.667,245.999l10.667,256l209.557,0l0,-512z"/>
   <path id="svg_3" fill="#C5CFC6" d="m46.443,0l0,512l209.557,0l0,-501.999l-89.333,-10.001l-120.224,0z"/>
   <path id="svg_4" fill="#9D9D93" d="m133.333,155.667l31.499,0l0,30l-31.499,0l0,-30z"/>
   <path id="svg_5" fill="#F8EDD1" d="m133.333,219.667l31.499,0l0,30l-31.499,0l0,-30z"/>
   <path id="svg_6" fill="#474843" d="m133.333,283.667l31.499,0l0,30l-31.499,0l0,-30z"/>
   <path id="svg_7" fill="#D88A8A" d="m133.333,379.667l80,0l0,30l-80,0l0,-30z"/>
   <path id="svg_8" fill="#F8EDD1" d="m298.667,437.213l-42.607,-42.607l21.213,-21.212l21.394,21.393l42.727,-42.727l21.212,21.213l-63.939,63.94z"/>
   <path id="svg_9" fill="#474843" d="m345.667,0l-89.667,0l-21.333,42.666l21.333,36.333l89.667,0l0,-78.999z"/>
   <path id="svg_10" fill="#9D9D93" d="m166.333,0l89.667,0l0,78.999l-89.667,0l0,-78.999z"/>
   <path id="svg_11" class="active-path" fill="#D88A8A" d="m378.667,185.667l0,-30l-122.667,0l-10.667,15l10.667,15l122.667,0z"/>
   <path id="svg_12" class="active-path" fill="#D88A8A" d="m378.667,249.667l0,-30l-122.667,0l-10.667,15l10.667,15l122.667,0z"/>
   <path id="svg_13" class="active-path" fill="#D88A8A" d="m378.667,313.667l0,-30l-122.667,0l-10.667,15l10.667,15l122.667,0z"/>
   <g id="svg_14" fill="#d3d3d8">
    <path id="svg_15" fill="#D88A8A" d="m194.832,155.667l61.168,0l0,30l-61.168,0l0,-30z"/>
    <path id="svg_16" fill="#D88A8A" d="m194.832,219.667l61.168,0l0,30l-61.168,0l0,-30z"/>
    <path id="svg_17" fill="#D88A8A" d="m194.832,283.667l61.168,0l0,30l-61.168,0l0,-30z"/>
   </g>
  </g>
  <line stroke="#474843" stroke-linecap="undefined" stroke-linejoin="undefined" id="svg_19" y2="430.447906" x2="110.5" y1="77.447917" x1="110.5" stroke-width="3" fill="none"/>
  <line stroke="#474843" stroke-linecap="undefined" stroke-linejoin="undefined" id="svg_20" y2="78.447917" x2="109.499999" y1="77.447917" x1="398.499987" stroke-width="3" fill="none"/>
  <line stroke-linecap="undefined" stroke-linejoin="undefined" id="svg_21" y2="429.447917" x2="399.5" y1="429.447917" x1="110.5" stroke-width="3" stroke="#474843" fill="none"/>
  <line stroke="#474843" stroke-linecap="undefined" stroke-linejoin="undefined" id="svg_22" y2="430.447937" x2="398.5" y1="76.447922" x1="398.5" stroke-width="3" fill="none"/>
 </g>
</svg>