<svg id="Layer_1" enable-background="new 0 0 256 256" height="512" viewBox="0 0 256 256" width="512" xmlns="http://www.w3.org/2000/svg"><path d="m183.106 32.933-22.823-19.26c-4.13-3.485-9.556-5.034-14.903-4.254l-45.247 6.598c-3.886.567-6.767 3.898-6.767 7.825v52.044l36.113 11.504c8.171 2.603 16.805 3.424 25.321 2.408l28.307-3.377h15.783v-53.488z" fill="#f9cfcf"/><path d="m147.627 92.227c-6.347 0-12.629-.98-18.756-2.932l-36.112-11.505c-.83-.264-1.393-1.034-1.393-1.905v-52.043c0-4.885 3.645-9.1 8.478-9.805l45.247-6.598c5.91-.858 11.917.853 16.482 4.705l22.264 18.788h15.052c1.104 0 2 .896 2 2v53.488c0 1.104-.896 2-2 2h-15.664l-28.189 3.363c-2.475.296-4.947.444-7.409.444zm-52.261-17.804 34.719 11.062c7.954 2.533 16.189 3.317 24.477 2.327l28.307-3.377c.079-.009.158-.014.237-.014h13.783v-49.488h-13.783c-.472 0-.929-.167-1.29-.472l-22.823-19.26c-3.69-3.113-8.546-4.504-13.325-3.803l-45.247 6.598c-2.882.42-5.055 2.933-5.055 5.846z" fill="#3762cc"/><path d="m163.824 202.145-.036-.016c6.786-5.198 12.387-12.47 15.844-21.491 9.725-25.378-1.016-54.661-23.99-65.403-16.403-7.671-34.598-3.803-47.206 8.269-2.534 2.426-6.649 2.539-9.24.166-12.382-11.339-29.865-15.03-45.842-7.908-23.122 10.306-34.27 39.282-24.902 64.719 3.33 9.042 8.829 16.378 15.541 21.669l-.036.016 50.476 41.553c4.895 4.03 12.153 4.083 17.114.126z" fill="#f9a7a7"/><path d="m206.892 95.872h22.372c.885 0 1.602-.717 1.602-1.602v-69.105c0-.885-.717-1.602-1.602-1.602h-22.372c-3.285 0-5.947 2.663-5.947 5.947v60.414c0 3.285 2.663 5.948 5.947 5.948z" fill="#4671c6"/><path d="m200.945 29.51c0-.008.001-.016.001-.024h-5.479c-1.749 0-3.167 1.418-3.167 3.167v52.91c0 1.749 1.418 3.167 3.167 3.167h5.478z" fill="#e0ebfc"/><path d="m229.264 97.871h-22.372c-4.382 0-7.947-3.564-7.947-7.946v-60.415c0-4.382 3.565-7.946 7.947-7.946h22.372c1.986 0 3.602 1.615 3.602 3.602v69.104c0 1.986-1.616 3.601-3.602 3.601zm-22.372-72.308c-2.176 0-3.947 1.771-3.947 3.946v60.415c0 2.176 1.771 3.946 3.947 3.946h21.974v-68.307z" fill="#3762cc"/><path d="m200.945 90.729h-5.478c-2.849 0-5.167-2.318-5.167-5.167v-52.91c0-2.849 2.318-5.166 5.167-5.166h5.479c1.104 0 2 .896 2 2 0 .019 0 .039-.001.061v59.183c0 1.104-.895 1.999-2 1.999zm-5.478-59.243c-.644 0-1.167.523-1.167 1.166v52.91c0 .644.523 1.167 1.167 1.167h3.478v-55.243z" fill="#3762cc"/><circle cx="102.866" cy="59.267" fill="#eaa97d" r="34.484"/><circle cx="102.866" cy="59.267" fill="#ffea92" r="22.653"/><path d="m100.942 74.795c-4.235-.639-7.303-3.262-7.651-7.547-.036-.446.326-.827.774-.827h3.351c.383 0 .7.282.764.659.254 1.491 1 2.657 2.297 3.272.518.246 1.118-.123 1.118-.697v-8.093c0-.347-.231-.651-.565-.745-3.807-1.077-7.771-2.483-7.771-8.43 0-4.738 3.118-8.061 7.689-8.772.374-.058.647-.383.647-.761v-2.177c0-.427.347-.774.774-.774h1.033c.427 0 .774.347.774.774v2.13c0 .378.273.705.647.762 3.944.595 6.67 3.052 7.279 7.275.067.464-.3.88-.769.88h-3.319c-.371 0-.678-.265-.759-.627-.248-1.113-.884-2.122-1.867-2.766-.52-.341-1.212.018-1.212.641v7.782c0 .35.235.655.573.747 3.802 1.034 7.725 2.403 7.725 8.346 0 4.118-2.702 8.114-7.65 8.904-.373.06-.647.383-.647.761v2.179c0 .427-.347.774-.774.774h-1.033c-.427 0-.774-.347-.774-.774v-2.132c-.001-.382-.278-.708-.654-.764zm.653-19.359v-6.806c0-.524-.515-.912-1.009-.738-1.636.574-2.723 1.967-2.723 4.229 0 2.094 1.056 3.246 2.609 4.008.518.254 1.123-.117 1.123-.693zm2.581 7.444v6.797c0 .562.579.931 1.094.707 1.697-.738 2.638-2.351 2.638-4.273 0-2.06-1.059-3.176-2.614-3.926-.517-.249-1.118.121-1.118.695z" fill="#eaa97d"/><path d="m102.866 95.751c-20.117 0-36.483-16.366-36.483-36.483s16.366-36.483 36.483-36.483 36.484 16.365 36.484 36.483-16.367 36.483-36.484 36.483zm0-68.967c-17.912 0-32.483 14.572-32.483 32.483s14.572 32.483 32.483 32.483 32.484-14.572 32.484-32.483-14.573-32.483-32.484-32.483z" fill="#3762cc"/><path d="m131.692 143.755h-57.489c-2.719 0-4.923-2.204-4.923-4.923 0-2.719 2.204-4.923 4.923-4.923h57.488c2.719 0 4.923 2.204 4.923 4.923.001 2.719-2.204 4.923-4.922 4.923z" fill="#4671c6"/><path d="m103.068 248.795c-3.525 0-7.048-1.179-9.905-3.53l-50.476-41.553c-.089-.073-.171-.153-.246-.24-7.107-5.699-12.589-13.4-15.866-22.298-9.71-26.364 1.938-56.526 25.964-67.237 16.176-7.208 34.57-4.046 48.007 8.261 1.794 1.643 4.712 1.58 6.506-.137 13.745-13.159 32.688-16.469 49.437-8.637 23.868 11.16 35.088 41.634 25.011 67.931-3.404 8.881-8.995 16.521-16.185 22.122-.074.084-.155.161-.244.232l-52.277 41.701c-2.83 2.258-6.279 3.385-9.726 3.385zm-57.535-47.921 50.172 41.303c4.133 3.4 10.407 3.447 14.596.106l51.969-41.456c.09-.104.191-.2.302-.286 6.752-5.171 12.005-12.301 15.193-20.618 9.343-24.38-.961-52.586-22.97-62.876-15.217-7.114-32.452-4.086-44.976 7.902-3.341 3.2-8.6 3.285-11.974.198-12.243-11.213-28.978-14.111-43.677-7.557-22.142 9.869-32.836 37.772-23.839 62.2 3.069 8.335 8.223 15.523 14.903 20.79.111.089.212.188.301.294z" fill="#3762cc"/><path d="m157.63 89.46 8.746-1.043 2.709-26.149h-21.61l-44.122 2.03c-1.031-.103-2.042-.052-3.009.138h-.006l.001.001c-4.308.848-7.75 4.416-8.233 9.011-.594 5.646 3.502 10.704 9.148 11.297l38.743 4.952c3.638.465 7.306.613 10.965.458 2.663-.211 6.668-.695 6.668-.695z" fill="#f9cfcf"/><path d="m148.168 92.212c-2.851 0-5.663-.178-8.425-.531l-38.743-4.952c-3.217-.337-6.15-1.93-8.214-4.479s-3.012-5.749-2.669-9.011c.567-5.392 4.52-9.718 9.836-10.765 1.137-.223 2.294-.283 3.448-.182l43.982-2.023c1.115-.051 2.039.804 2.09 1.906.051 1.104-.803 2.039-1.906 2.09l-44.122 2.029c-.098.002-.195.003-.292-.008-.815-.081-1.63-.044-2.425.111-.018.003-.037.007-.055.01-3.557.725-6.197 3.632-6.578 7.249-.231 2.199.408 4.357 1.799 6.075 1.392 1.719 3.369 2.793 5.568 3.023l38.788 4.958c3.487.445 7.062.595 10.626.443 2.519-.202 6.474-.678 6.514-.683l8.749-1.045c1.09-.116 2.092.653 2.223 1.749.131 1.097-.652 2.092-1.749 2.224l-8.746 1.044c-.163.02-4.074.49-6.747.703-.988.044-1.972.065-2.952.065z" fill="#3762cc"/></svg>