<?xml version="1.0"?>
<svg xmlns="http://www.w3.org/2000/svg" height="512px" viewBox="0 -55 512 512" width="512px" class=""><g><path d="m155.871094 234.835938h46.949218c7.042969 0 14.050782 1.074218 20.773438 3.179687l125.222656 39.265625c12.320313 3.863281 25.59375 3.367188 37.589844-1.40625l81.558594-32.445312c12.890625-5.128907 27.613281-1.410157 36.523437 9.222656 10.566407 12.609375 9.90625 31.15625-1.527343 42.988281-26.828126 27.769531-78.800782 75.230469-139.769532 98.339844-17.535156 6.644531-36.347656 9.183593-55.03125 7.597656-39.609375-3.359375-117.066406-13.15625-152.289062-39.808594zm0 0" fill="#fed2a4" data-original="#FED2A4" class=""/><path d="m512 273.300781c0 8.078125-3.035156 16.136719-9.035156 22.339844-26.832032 27.769531-78.804688 75.234375-139.773438 98.34375-17.53125 6.636719-36.351562 9.1875-55.023437 7.59375-39.621094-3.351563-117.082031-13.15625-152.296875-39.804687v-27.601563c35.214844 26.664063 112.675781 36.449219 152.296875 39.820313 18.671875 1.574218 37.492187-.957032 55.023437-7.609376 60.96875-23.113281 112.941406-70.558593 139.773438-98.328124 2.5-2.582032 4.476562-5.464844 5.917968-8.546876 2.078126 4.355469 3.117188 9.082032 3.117188 13.792969zm0 0" fill="#ffbd86" data-original="#FFBD86" class=""/><path d="m155.871094 234.835938v46.722656l36.0625 22.3125c24.300781 17.941406 59.652344 16.058594 89.726562 18.882812l57.617188 5.414063c13.195312 1.242187 25.136718-7.847657 27.460937-20.894531l.183594-1.027344c2.273437-12.78125-5.476563-25.0625-17.882813-28.894532-.070312-.023437-.148437-.042968-.222656-.066406l-125.222656-39.265625c-6.722656-2.109375-13.730469-3.179687-20.773438-3.179687h-46.949218" fill="#f4c092" data-original="#F4C092" class=""/><path d="m154.125 374.445312h-44.613281v-146.9375h44.613281c3.261719 0 5.902344 2.640626 5.902344 5.902344v135.128906c0 3.265626-2.640625 5.90625-5.902344 5.90625zm0 0" fill="#fff5f5" data-original="#FFF5F5" class="" style="fill:#F8EDD1" data-old_color="#fff5f5"/><path d="m154.125 374.445312h-35.929688v-43.671874h41.832032v37.769531c0 3.261719-2.640625 5.902343-5.902344 5.902343zm0 0" fill="#efe2dd" data-original="#EFE2DD" class="active-path" style="fill:#DCD2B8" data-old_color="#efe2dd"/><path d="m112.027344 388.722656h-105.859375c-3.40625 0-6.167969-2.761718-6.167969-6.167968v-163.15625c0-3.40625 2.761719-6.167969 6.167969-6.167969h105.859375c3.40625 0 6.167968 2.761719 6.167968 6.167969v163.15625c0 3.40625-2.761718 6.167968-6.167968 6.167968zm0 0" fill="#6fd6a2" data-original="#6FD6A2" class="" style="fill:#D88A8A" data-old_color="#6fd6a2"/><path d="m112.027344 388.722656h-105.859375c-3.40625 0-6.167969-2.761718-6.167969-6.167968v-39.332032h118.195312v39.332032c0 3.40625-2.761718 6.167968-6.167968 6.167968zm0 0" fill="#43cd8e" data-original="#43CD8E" class="" style="fill:#A26D6D" data-old_color="#43cd8e"/><path d="m474.847656 113.753906c0 62.824219-50.929687 113.753906-113.753906 113.753906s-113.753906-50.929687-113.753906-113.753906c0-62.824218 50.929687-113.753906 113.753906-113.753906s113.753906 50.929688 113.753906 113.753906zm0 0" fill="#fff1af" data-original="#FFF1AF" class=""/><path d="m474.847656 113.75c0 60-46.441406 109.132812-105.332031 113.4375 48.195313-13.203125 83.613281-57.316406 83.613281-109.710938 0-62.824218-50.933594-113.746093-113.757812-113.746093-2.832032 0-5.644532.101562-8.421875.316406 9.597656-2.636719 19.707031-4.04296875 30.144531-4.04296875 62.820312 0 113.753906 50.92187475 113.753906 113.74609375zm0 0" fill="#ffea7e" data-original="#FFEA7E" class=""/><path d="m434.238281 113.753906c0 40.398438-32.746093 73.148438-73.144531 73.148438s-73.148438-32.75-73.148438-73.148438c0-40.398437 32.75-73.148437 73.148438-73.148437s73.144531 32.75 73.144531 73.148437zm0 0" fill="#ffa812" data-original="#FFA812" class=""/><path d="m376.253906 115.019531c-3.664062-3.300781-7.609375-5.574219-11.429687-7.773437-3.277344-1.890625-6.378907-3.675782-8.851563-5.902344-2.4375-2.195312-2.832031-5.390625-1.03125-8.335938 1.074219-1.757812 3.347656-2.941406 5.9375-3.09375 1.734375-.101562 4.035156.886719 5.476563 2.34375.496093.503907 1.3125 1.5 1.238281 2.539063-.296875 4.132813 2.808594 7.722656 6.9375 8.019531 4.140625.292969 7.726562-2.808594 8.023438-6.9375.371093-5.140625-1.589844-10.167968-5.523438-14.152344-2.363281-2.398437-5.304688-4.246093-8.4375-5.410156v-4.199218c0-4.144532-3.355469-7.5-7.5-7.5s-7.5 3.355468-7.5 7.5v4.082031c-4.8125 1.644531-8.882812 4.78125-11.453125 8.988281-5.542969 9.074219-3.984375 20.300781 3.792969 27.300781 3.652344 3.289063 7.59375 5.5625 11.40625 7.757813 3.285156 1.894531 6.390625 3.679687 8.875 5.917968 2.4375 2.195313 2.832031 5.390626 1.027344 8.339844-1.070313 1.753906-3.34375 2.941406-5.933594 3.089844-1.746094.101562-4.035156-.882812-5.476563-2.34375-.496093-.503906-1.3125-1.5-1.238281-2.539062.296875-4.128907-2.808594-7.722657-6.941406-8.019532-4.148438-.292968-7.722656 2.808594-8.019532 6.941406-.371093 5.136719 1.589844 10.164063 5.519532 14.148438 2.367187 2.402344 5.308594 4.257812 8.441406 5.421875v4.191406c0 4.140625 3.355469 7.5 7.5 7.5s7.5-3.359375 7.5-7.5v-4.082031c4.8125-1.648438 8.882812-4.785156 11.453125-8.992188 5.542969-9.070312 3.980469-20.300781-3.792969-27.300781zm0 0" fill="#ffcd6b" data-original="#FFCD6B" class=""/><path d="m434.242188 113.75c0 40.402344-32.753907 73.148438-73.148438 73.148438-8.46875 0-16.597656-1.4375-24.160156-4.09375.808594.039062 1.621094.046874 2.4375.046874 40.394531 0 73.148437-32.742187 73.148437-73.144531 0-31.933593-20.460937-59.085937-48.996093-69.058593 39.269531 1.277343 70.71875 33.515624 70.71875 73.101562zm0 0" fill="#ff9a00" data-original="#FF9A00" class="" style="fill:#FF9A00"/></g> </svg>
